HIERARCHY
ROOT Hips
{
	OFFSET -3.958830 18.904000 13.208200
	CHANNELS 6 Xposition Yposition Zposition Zrotation Yrotation Xrotation 
	JOINT LHipJoint
	{
		OFFSET 0.000000 0.000000 0.000000
		CHANNELS 3 Zrotation Yrotation Xrotation
		JOINT LeftUpLeg
		{
			OFFSET 1.800000 -1.400000 0.085000
			CHANNELS 3 Zrotation Yrotation Xrotation
			JOINT LeftLeg
			{
				OFFSET 2.215000 -6.000000 0.000000
				CHANNELS 3 Zrotation Yrotation Xrotation
				JOINT LeftFoot
				{
					OFFSET 2.500000 -6.900000 0.000000
					CHANNELS 3 Zrotation Yrotation Xrotation
					JOINT LeftToeBase
					{
						OFFSET 0.200000 -0.500000 1.950000
						CHANNELS 3 Zrotation Yrotation Xrotation
						End Site
						{
							OFFSET 0.000000 0.000000 0.000000
						}
					}
				}
			}
		}
	}
	JOINT RHipJoint
	{
		OFFSET 0.000000 0.000000 0.000000
		CHANNELS 3 Zrotation Yrotation Xrotation
		JOINT RightUpLeg
		{
			OFFSET -1.800000 -1.400000 0.085000
			CHANNELS 3 Zrotation Yrotation Xrotation
			JOINT RightLeg
			{
				OFFSET -2.215000 -6.000000 0.000000
				CHANNELS 3 Zrotation Yrotation Xrotation
				JOINT RightFoot
				{
					OFFSET -2.500000 -6.900000 0.000000
					CHANNELS 3 Zrotation Yrotation Xrotation
					JOINT RightToeBase
					{
						OFFSET -0.200000 -0.500000 1.950000
						CHANNELS 3 Zrotation Yrotation Xrotation
						End Site
						{
							OFFSET 0.000000 0.000000 0.000000
						}
					}
				}
			}
		}
	}
	JOINT LowerBack
	{
		OFFSET 0.000000 0.000000 0.000000
		CHANNELS 3 Zrotation Yrotation Xrotation
		JOINT Spine
		{
			OFFSET -0.087000 1.940000 -0.288900
			CHANNELS 3 Zrotation Yrotation Xrotation
			JOINT Spine1
			{
				OFFSET 0.000000 1.950000 0.060000
				CHANNELS 3 Zrotation Yrotation Xrotation
				JOINT Neck
				{
					OFFSET 0.000000 0.000000 0.000000
					CHANNELS 3 Zrotation Yrotation Xrotation
					JOINT Neck1
					{
						OFFSET 0.000000 1.600000 0.340000
						CHANNELS 3 Zrotation Yrotation Xrotation
						JOINT Head
						{
							OFFSET 0.000000 1.667000 -0.240000
							CHANNELS 3 Zrotation Yrotation Xrotation
							End Site
							{
								OFFSET 0.000000 0.000000 0.000000
							}
						}
					}
				}
				JOINT LeftShoulder
				{
					OFFSET 0.000000 0.000000 0.000000
					CHANNELS 3 Zrotation Yrotation Xrotation
					JOINT LeftArm
					{
						OFFSET 2.700000 1.550000 -0.730000
						CHANNELS 3 Zrotation Yrotation Xrotation
						JOINT LeftForeArm
						{
							OFFSET 5.450000 0.000000 0.000000
							CHANNELS 3 Zrotation Yrotation Xrotation
							JOINT LeftHand
							{
								OFFSET 3.450000 0.000000 0.000000
								CHANNELS 3 Zrotation Yrotation Xrotation
								JOINT LeftHandIndex1
								{
									OFFSET 0.750000 0.000000 0.000000
									CHANNELS 3 Zrotation Yrotation Xrotation
									End Site
									{
										OFFSET 0.000000 0.000000 0.000000
									}
								}
							}
						}
					}
				}
				JOINT RightShoulder
				{
					OFFSET 0.000000 0.000000 0.000000
					CHANNELS 3 Zrotation Yrotation Xrotation
					JOINT RightArm
					{
						OFFSET -2.700000 1.550000 -0.730000
						CHANNELS 3 Zrotation Yrotation Xrotation
						JOINT RightForeArm
						{
							OFFSET -5.450000 0.000000 0.000000
							CHANNELS 3 Zrotation Yrotation Xrotation
							JOINT RightHand
							{
								OFFSET -3.450000 0.000000 0.000000
								CHANNELS 3 Zrotation Yrotation Xrotation
								JOINT RightHandIndex1
								{
									OFFSET -0.750000 0.000000 0.000000
									CHANNELS 3 Zrotation Yrotation Xrotation
									End Site
									{
										OFFSET 0.000000 0.000000 0.000000
									}
								}
							}
						}
					}
				}
			}
		}
	}
}
MOTION
Frames: 4
Frame Time: 0.016667
-1.840410 17.778640 1.109800 -9.505623 -23.363410 -7.887718 -15.041055 12.791453 3.689889 18.816148 0.431956 -32.160280 -4.716922 8.646485 27.561341 -0.682841 6.684570 2.380061 -0.497500 -0.686190 -0.945780 18.448182 -10.936919 2.635521 1.692433 3.597396 -6.942487 1.736980 -8.560454 42.784946 -0.756099 -7.346632 2.089414 -0.264310 1.532100 0.346310 -3.891740 -1.062279 -7.672849 10.704684 -0.236546 33.624382 -4.257808 5.241509 14.480221 2.290440 -10.344609 -11.917579 -17.130319 8.381348 20.221130 6.603300 -3.074900 -8.108750 -1.704914 -1.773883 6.501898 -51.173686 -11.485992 -1.078557 127.025042 -59.279753 -116.600328 -4.580304 2.775205 0.442250 0.677090 -0.550880 0.334300 -2.391307 13.260443 6.158919 14.751887 20.003746 -6.495543 -140.413228 16.975978 -71.460997 1.485151 -1.628978 -0.627640 0.799860 0.828850 0.250500 
-1.822610 17.826150 1.110850 -9.806824 -22.857381 -6.833829 -14.960727 12.639847 3.676087 18.716132 0.387766 -32.118857 -5.163757 8.328265 25.710967 -0.728199 6.408556 2.491634 -0.471470 -0.638460 -0.957670 18.526945 -11.057599 2.662729 1.989756 3.500201 -7.371113 1.676282 -8.271562 41.377408 -0.704782 -7.128276 2.172159 -0.230320 1.549470 0.335180 -4.147331 -0.627306 -7.623354 12.488077 -0.870905 32.025144 -6.566200 4.982656 15.318221 2.590677 -10.518225 -12.040897 -17.511502 7.877171 20.154527 7.240810 -3.904460 -8.322810 -2.666293 -3.669415 6.694349 -48.665996 -13.552495 -0.189245 129.467592 -56.265901 -116.778348 -4.575135 2.779017 0.421820 0.686280 -0.562460 0.356470 -1.983991 14.577336 6.340131 12.238338 19.395392 -6.998399 -139.614793 18.502451 -73.041201 1.471759 -1.616877 -0.624380 0.822440 0.816200 0.267320 
-1.787910 17.923500 1.095810 -10.199793 -21.871604 -6.141277 -14.865493 12.603015 3.508439 18.013707 0.483284 -30.801666 -5.268409 7.401931 21.829985 -0.808907 5.744027 2.748080 -0.408750 -0.535070 -0.932860 18.589979 -11.262749 2.715912 2.193714 3.044842 -6.786468 1.968702 -7.908108 38.243257 -0.640255 -6.744037 2.291822 -0.165570 1.531560 0.330710 -4.368305 -0.186148 -7.505103 14.302539 -1.466038 31.336319 -9.471351 5.054676 16.755384 3.509517 -10.222707 -11.985340 -16.652987 6.540760 19.581991 6.966730 -4.503290 -9.708080 -3.477604 -6.346489 6.436051 -44.896568 -18.216807 1.478113 131.154014 -51.200332 -113.295442 -4.546864 2.756728 0.391910 0.680480 -0.548360 0.381870 -2.980107 16.357358 6.672928 9.088172 18.395152 -8.746016 -136.267607 21.010288 -73.820911 1.485083 -1.618788 -0.602010 0.832900 0.773600 0.284550 
-1.748900 18.017120 1.080640 -10.406947 -21.038618 -5.199334 -14.770627 12.503204 3.332447 17.155661 0.557922 -29.421108 -5.184241 6.463034 17.814437 -0.882017 5.121795 3.011896 -0.322230 -0.399050 -0.894840 18.661797 -11.490477 2.756780 2.081480 2.605307 -6.354900 2.519900 -7.572092 34.676919 -0.553260 -6.369785 2.433243 -0.063340 1.540290 0.317160 -4.611544 0.387025 -7.378149 15.832960 -2.089265 29.939657 -12.615765 5.051943 18.774887 4.563777 -9.386836 -11.906309 -14.609791 5.353871 18.688064 6.125570 -4.686900 -9.760630 -2.518848 -9.440212 6.490703 -40.452171 -22.896401 2.867555 132.819327 -45.429745 -109.064789 -4.537356 2.753591 0.317010 0.713280 -0.562110 0.427120 -5.868524 18.134147 6.824017 6.427277 18.531773 -10.513024 -129.407058 25.315740 -72.985834 1.500369 -1.627207 -0.584590 0.859860 0.709360 0.305080 
